<svg width="182" height="132" viewBox="0 0 182 132" fill="none" xmlns="http://www.w3.org/2000/svg">
<g filter="url(#filter0_d_280_2911)">
<rect x="4.5" y="0.5" width="173" height="123" rx="4.5" fill="white" stroke="black"/>
<g clip-path="url(#clip0_280_2911)">
<path d="M96.0052 16.0843C94.8365 15.7397 93.6196 16.4358 93.2827 17.6311L84.4827 49.1312C84.1459 50.3265 84.8265 51.571 85.9952 51.9155C87.164 52.2601 88.3809 51.564 88.7177 50.3686L97.5177 18.8686C97.8546 17.6733 97.174 16.4288 96.0052 16.0843ZM101.546 24.5288C100.687 25.4077 100.687 26.8351 101.546 27.714L107.686 33.9999L101.54 40.2858C100.68 41.1647 100.68 42.5921 101.54 43.471C102.399 44.3499 103.795 44.3499 104.654 43.471L112.354 35.596C113.213 34.7171 113.213 33.2897 112.354 32.4108L104.654 24.5358C103.795 23.6569 102.399 23.6569 101.54 24.5358L101.546 24.5288ZM80.4609 24.5288C79.6015 23.6499 78.2059 23.6499 77.3465 24.5288L69.6465 32.4038C68.7871 33.2827 68.7871 34.7101 69.6465 35.589L77.3465 43.464C78.2059 44.3429 79.6015 44.3429 80.4609 43.464C81.3202 42.5851 81.3202 41.1577 80.4609 40.2788L74.3146 33.9999L80.4609 27.714C81.3202 26.8351 81.3202 25.4077 80.4609 24.5288Z" fill="#0047AB"/>
</g>
<path d="M23.032 76.24C21.752 76.24 20.56 76.032 19.456 75.616C18.368 75.184 17.416 74.584 16.6 73.816C15.8 73.032 15.176 72.112 14.728 71.056C14.28 70 14.056 68.848 14.056 67.6C14.056 66.352 14.28 65.2 14.728 64.144C15.176 63.088 15.808 62.176 16.624 61.408C17.44 60.624 18.392 60.024 19.48 59.608C20.568 59.176 21.76 58.96 23.056 58.96C24.432 58.96 25.688 59.2 26.824 59.68C27.96 60.144 28.92 60.84 29.704 61.768L27.688 63.664C27.08 63.008 26.4 62.52 25.648 62.2C24.896 61.864 24.08 61.696 23.2 61.696C22.32 61.696 21.512 61.84 20.776 62.128C20.056 62.416 19.424 62.824 18.88 63.352C18.352 63.88 17.936 64.504 17.632 65.224C17.344 65.944 17.2 66.736 17.2 67.6C17.2 68.464 17.344 69.256 17.632 69.976C17.936 70.696 18.352 71.32 18.88 71.848C19.424 72.376 20.056 72.784 20.776 73.072C21.512 73.36 22.32 73.504 23.2 73.504C24.08 73.504 24.896 73.344 25.648 73.024C26.4 72.688 27.08 72.184 27.688 71.512L29.704 73.432C28.92 74.344 27.96 75.04 26.824 75.52C25.688 76 24.424 76.24 23.032 76.24ZM37.6733 76.168C36.3613 76.168 35.1933 75.888 34.1693 75.328C33.1453 74.752 32.3373 73.968 31.7453 72.976C31.1533 71.984 30.8573 70.856 30.8573 69.592C30.8573 68.312 31.1533 67.184 31.7453 66.208C32.3373 65.216 33.1453 64.44 34.1693 63.88C35.1933 63.32 36.3613 63.04 37.6733 63.04C39.0013 63.04 40.1773 63.32 41.2013 63.88C42.2413 64.44 43.0493 65.208 43.6253 66.184C44.2173 67.16 44.5133 68.296 44.5133 69.592C44.5133 70.856 44.2173 71.984 43.6253 72.976C43.0493 73.968 42.2413 74.752 41.2013 75.328C40.1773 75.888 39.0013 76.168 37.6733 76.168ZM37.6733 73.6C38.4093 73.6 39.0653 73.44 39.6413 73.12C40.2173 72.8 40.6653 72.336 40.9853 71.728C41.3213 71.12 41.4893 70.408 41.4893 69.592C41.4893 68.76 41.3213 68.048 40.9853 67.456C40.6653 66.848 40.2173 66.384 39.6413 66.064C39.0653 65.744 38.4173 65.584 37.6973 65.584C36.9613 65.584 36.3053 65.744 35.7293 66.064C35.1693 66.384 34.7213 66.848 34.3853 67.456C34.0493 68.048 33.8813 68.76 33.8813 69.592C33.8813 70.408 34.0493 71.12 34.3853 71.728C34.7213 72.336 35.1693 72.8 35.7293 73.12C36.3053 73.44 36.9533 73.6 37.6733 73.6ZM52.8061 76.168C51.5741 76.168 50.4621 75.896 49.4701 75.352C48.4941 74.792 47.7261 74.024 47.1661 73.048C46.6061 72.072 46.3261 70.92 46.3261 69.592C46.3261 68.264 46.6061 67.112 47.1661 66.136C47.7261 65.16 48.4941 64.4 49.4701 63.856C50.4621 63.312 51.5741 63.04 52.8061 63.04C53.8781 63.04 54.8381 63.28 55.6861 63.76C56.5341 64.224 57.2061 64.936 57.7021 65.896C58.1981 66.856 58.4461 68.088 58.4461 69.592C58.4461 71.08 58.2061 72.312 57.7261 73.288C57.2461 74.248 56.5821 74.968 55.7341 75.448C54.8861 75.928 53.9101 76.168 52.8061 76.168ZM53.1661 73.6C53.8861 73.6 54.5261 73.44 55.0861 73.12C55.6621 72.8 56.1181 72.336 56.4541 71.728C56.8061 71.12 56.9821 70.408 56.9821 69.592C56.9821 68.76 56.8061 68.048 56.4541 67.456C56.1181 66.848 55.6621 66.384 55.0861 66.064C54.5261 65.744 53.8861 65.584 53.1661 65.584C52.4461 65.584 51.7981 65.744 51.2221 66.064C50.6621 66.384 50.2061 66.848 49.8541 67.456C49.5181 68.048 49.3501 68.76 49.3501 69.592C49.3501 70.408 49.5181 71.12 49.8541 71.728C50.2061 72.336 50.6621 72.8 51.2221 73.12C51.7981 73.44 52.4461 73.6 53.1661 73.6ZM57.0541 76V72.976L57.1741 69.568L56.9341 66.16V58.192H59.9101V76H57.0541ZM69.8826 76.168C68.4586 76.168 67.2106 75.888 66.1386 75.328C65.0826 74.752 64.2586 73.968 63.6666 72.976C63.0906 71.984 62.8026 70.856 62.8026 69.592C62.8026 68.312 63.0826 67.184 63.6426 66.208C64.2186 65.216 65.0026 64.44 65.9946 63.88C67.0026 63.32 68.1466 63.04 69.4266 63.04C70.6746 63.04 71.7866 63.312 72.7626 63.856C73.7386 64.4 74.5066 65.168 75.0666 66.16C75.6266 67.152 75.9066 68.32 75.9066 69.664C75.9066 69.792 75.8986 69.936 75.8826 70.096C75.8826 70.256 75.8746 70.408 75.8586 70.552H65.1786V68.56H74.2746L73.0986 69.184C73.1146 68.448 72.9626 67.8 72.6426 67.24C72.3226 66.68 71.8826 66.24 71.3226 65.92C70.7786 65.6 70.1466 65.44 69.4266 65.44C68.6906 65.44 68.0426 65.6 67.4826 65.92C66.9386 66.24 66.5066 66.688 66.1866 67.264C65.8826 67.824 65.7306 68.488 65.7306 69.256V69.736C65.7306 70.504 65.9066 71.184 66.2586 71.776C66.6106 72.368 67.1066 72.824 67.7466 73.144C68.3866 73.464 69.1226 73.624 69.9546 73.624C70.6746 73.624 71.3226 73.512 71.8986 73.288C72.4746 73.064 72.9866 72.712 73.4346 72.232L75.0426 74.08C74.4666 74.752 73.7386 75.272 72.8586 75.64C71.9946 75.992 71.0026 76.168 69.8826 76.168ZM93.4851 76.24C92.2051 76.24 91.0131 76.032 89.9091 75.616C88.8211 75.184 87.8691 74.584 87.0531 73.816C86.2531 73.032 85.6291 72.112 85.1811 71.056C84.7331 70 84.5091 68.848 84.5091 67.6C84.5091 66.352 84.7331 65.2 85.1811 64.144C85.6291 63.088 86.2611 62.176 87.0771 61.408C87.8931 60.624 88.8451 60.024 89.9331 59.608C91.0211 59.176 92.2131 58.96 93.5091 58.96C94.8851 58.96 96.1411 59.2 97.2771 59.68C98.4131 60.144 99.3731 60.84 100.157 61.768L98.1411 63.664C97.5331 63.008 96.8531 62.52 96.1011 62.2C95.3491 61.864 94.5331 61.696 93.6531 61.696C92.7731 61.696 91.9651 61.84 91.2291 62.128C90.5091 62.416 89.8771 62.824 89.3331 63.352C88.8051 63.88 88.3891 64.504 88.0851 65.224C87.7971 65.944 87.6531 66.736 87.6531 67.6C87.6531 68.464 87.7971 69.256 88.0851 69.976C88.3891 70.696 88.8051 71.32 89.3331 71.848C89.8771 72.376 90.5091 72.784 91.2291 73.072C91.9651 73.36 92.7731 73.504 93.6531 73.504C94.5331 73.504 95.3491 73.344 96.1011 73.024C96.8531 72.688 97.5331 72.184 98.1411 71.512L100.157 73.432C99.3731 74.344 98.4131 75.04 97.2771 75.52C96.1411 76 94.8771 76.24 93.4851 76.24ZM108.126 76.168C106.814 76.168 105.646 75.888 104.622 75.328C103.598 74.752 102.79 73.968 102.198 72.976C101.606 71.984 101.31 70.856 101.31 69.592C101.31 68.312 101.606 67.184 102.198 66.208C102.79 65.216 103.598 64.44 104.622 63.88C105.646 63.32 106.814 63.04 108.126 63.04C109.454 63.04 110.63 63.32 111.654 63.88C112.694 64.44 113.502 65.208 114.078 66.184C114.67 67.16 114.966 68.296 114.966 69.592C114.966 70.856 114.67 71.984 114.078 72.976C113.502 73.968 112.694 74.752 111.654 75.328C110.63 75.888 109.454 76.168 108.126 76.168ZM108.126 73.6C108.862 73.6 109.518 73.44 110.094 73.12C110.67 72.8 111.118 72.336 111.438 71.728C111.774 71.12 111.942 70.408 111.942 69.592C111.942 68.76 111.774 68.048 111.438 67.456C111.118 66.848 110.67 66.384 110.094 66.064C109.518 65.744 108.87 65.584 108.15 65.584C107.414 65.584 106.758 65.744 106.182 66.064C105.622 66.384 105.174 66.848 104.838 67.456C104.502 68.048 104.334 68.76 104.334 69.592C104.334 70.408 104.502 71.12 104.838 71.728C105.174 72.336 105.622 72.8 106.182 73.12C106.758 73.44 107.406 73.6 108.126 73.6ZM117.835 76V63.184H120.691V66.712L120.355 65.68C120.739 64.816 121.339 64.16 122.155 63.712C122.987 63.264 124.019 63.04 125.251 63.04V65.896C125.123 65.864 125.003 65.848 124.891 65.848C124.779 65.832 124.667 65.824 124.555 65.824C123.419 65.824 122.515 66.16 121.843 66.832C121.171 67.488 120.835 68.472 120.835 69.784V76H117.835ZM135.068 63.04C136.092 63.04 137.004 63.24 137.804 63.64C138.62 64.04 139.26 64.656 139.724 65.488C140.188 66.304 140.42 67.36 140.42 68.656V76H137.42V69.04C137.42 67.904 137.148 67.056 136.604 66.496C136.076 65.936 135.332 65.656 134.372 65.656C133.668 65.656 133.044 65.8 132.5 66.088C131.956 66.376 131.532 66.808 131.228 67.384C130.94 67.944 130.796 68.656 130.796 69.52V76H127.796V63.184H130.652V66.64L130.148 65.584C130.596 64.768 131.244 64.144 132.092 63.712C132.956 63.264 133.948 63.04 135.068 63.04ZM150.273 76.168C148.849 76.168 147.601 75.888 146.529 75.328C145.473 74.752 144.649 73.968 144.057 72.976C143.481 71.984 143.193 70.856 143.193 69.592C143.193 68.312 143.473 67.184 144.033 66.208C144.609 65.216 145.393 64.44 146.385 63.88C147.393 63.32 148.537 63.04 149.817 63.04C151.065 63.04 152.177 63.312 153.153 63.856C154.129 64.4 154.897 65.168 155.457 66.16C156.017 67.152 156.297 68.32 156.297 69.664C156.297 69.792 156.289 69.936 156.273 70.096C156.273 70.256 156.265 70.408 156.249 70.552H145.569V68.56H154.665L153.489 69.184C153.505 68.448 153.353 67.8 153.033 67.24C152.713 66.68 152.273 66.24 151.713 65.92C151.169 65.6 150.537 65.44 149.817 65.44C149.081 65.44 148.433 65.6 147.873 65.92C147.329 66.24 146.897 66.688 146.577 67.264C146.273 67.824 146.121 68.488 146.121 69.256V69.736C146.121 70.504 146.297 71.184 146.649 71.776C147.001 72.368 147.497 72.824 148.137 73.144C148.777 73.464 149.513 73.624 150.345 73.624C151.065 73.624 151.713 73.512 152.289 73.288C152.865 73.064 153.377 72.712 153.825 72.232L155.433 74.08C154.857 74.752 154.129 75.272 153.249 75.64C152.385 75.992 151.393 76.168 150.273 76.168ZM159.179 76V63.184H162.035V66.712L161.699 65.68C162.083 64.816 162.683 64.16 163.499 63.712C164.331 63.264 165.363 63.04 166.595 63.04V65.896C166.467 65.864 166.347 65.848 166.235 65.848C166.123 65.832 166.011 65.824 165.899 65.824C164.763 65.824 163.859 66.16 163.187 66.832C162.515 67.488 162.179 68.472 162.179 69.784V76H159.179Z" fill="#333333"/>
<path d="M28.456 85.6L28.408 87.7H28.012C28.036 87.228 27.976 86.872 27.832 86.632C27.696 86.384 27.504 86.22 27.256 86.14C27.016 86.052 26.744 86.012 26.44 86.02L25.564 86.044C25.292 86.052 25.092 86.108 24.964 86.212C24.844 86.316 24.768 86.468 24.736 86.668C24.704 86.86 24.68 87.096 24.664 87.376L24.544 89.584H25.48C25.768 89.576 26 89.548 26.176 89.5C26.352 89.452 26.484 89.348 26.572 89.188C26.668 89.028 26.724 88.784 26.74 88.456H27.136L27.004 91.084H26.608C26.624 90.756 26.592 90.52 26.512 90.376C26.44 90.224 26.316 90.128 26.14 90.088C25.972 90.048 25.744 90.028 25.456 90.028C25.304 90.028 25.148 90.032 24.988 90.04C24.836 90.04 24.68 90.048 24.52 90.064L24.388 92.572C24.38 92.788 24.368 92.976 24.352 93.136C24.336 93.288 24.32 93.416 24.304 93.52C24.44 93.512 24.576 93.508 24.712 93.508C24.848 93.5 24.984 93.492 25.12 93.484C25.256 93.476 25.392 93.472 25.528 93.472L25.504 94H22.492L22.516 93.604C22.82 93.588 23.032 93.52 23.152 93.4C23.272 93.272 23.344 93.1 23.368 92.884C23.392 92.66 23.408 92.408 23.416 92.128L23.704 86.944C23.712 86.784 23.724 86.632 23.74 86.488C23.756 86.336 23.772 86.2 23.788 86.08C23.644 86.088 23.496 86.096 23.344 86.104C23.2 86.112 23.056 86.12 22.912 86.128L22.936 85.6H28.456ZM29.7042 94C29.6962 93.944 29.6922 93.896 29.6922 93.856C29.6922 93.808 29.6922 93.752 29.6922 93.688C29.6922 93.552 29.6962 93.392 29.7042 93.208C29.7122 93.016 29.7282 92.764 29.7522 92.452C29.7842 92.14 29.8282 91.732 29.8842 91.228C29.9402 90.708 29.9842 90.316 30.0162 90.052C30.0482 89.788 30.0722 89.596 30.0882 89.476C30.1042 89.348 30.1122 89.244 30.1122 89.164C30.1202 89.004 30.1082 88.848 30.0762 88.696C30.0522 88.544 29.9562 88.468 29.7882 88.468C29.6602 88.468 29.5122 88.556 29.3442 88.732C29.1762 88.908 29.0322 89.208 28.9122 89.632L28.5762 89.56C28.6002 89.416 28.6482 89.252 28.7202 89.068C28.8002 88.876 28.9042 88.688 29.0322 88.504C29.1602 88.32 29.3162 88.168 29.5002 88.048C29.6842 87.928 29.8962 87.868 30.1362 87.868C30.4962 87.868 30.7362 87.992 30.8562 88.24C30.9762 88.488 31.0282 88.82 31.0122 89.236C31.0042 89.412 30.9802 89.608 30.9402 89.824C30.9082 90.032 30.8722 90.252 30.8322 90.484H30.8682C31.1002 89.788 31.3402 89.252 31.5882 88.876C31.8442 88.5 32.1002 88.24 32.3562 88.096C32.6202 87.944 32.8802 87.868 33.1362 87.868C33.3762 87.868 33.5762 87.932 33.7362 88.06C33.8962 88.18 33.9762 88.348 33.9762 88.564C33.9762 88.708 33.9242 88.84 33.8202 88.96C33.7242 89.08 33.5922 89.14 33.4242 89.14C33.2802 89.14 33.1562 89.096 33.0522 89.008C32.9482 88.92 32.8882 88.796 32.8722 88.636C32.6482 88.588 32.4282 88.66 32.2122 88.852C32.0042 89.044 31.8042 89.32 31.6122 89.68C31.4282 90.032 31.2642 90.428 31.1202 90.868C30.9842 91.308 30.8762 91.756 30.7962 92.212C30.7162 92.668 30.6762 93.092 30.6762 93.484C30.6762 93.604 30.6762 93.696 30.6762 93.76C30.6842 93.816 30.6922 93.896 30.7002 94H29.7042ZM37.2199 87.868C37.5079 87.868 37.7799 87.912 38.0359 88C38.2919 88.088 38.4999 88.232 38.6599 88.432C38.8199 88.632 38.8999 88.904 38.8999 89.248C38.8999 89.576 38.7879 89.86 38.5639 90.1C38.3399 90.34 38.0479 90.54 37.6879 90.7C37.3279 90.852 36.9439 90.976 36.5359 91.072C36.1279 91.168 35.7359 91.236 35.3599 91.276C35.3599 91.772 35.4079 92.188 35.5039 92.524C35.6079 92.86 35.7599 93.112 35.9599 93.28C36.1599 93.448 36.4159 93.532 36.7279 93.532C36.9599 93.532 37.1919 93.48 37.4239 93.376C37.6639 93.272 37.8919 93.116 38.1079 92.908C38.3239 92.692 38.5199 92.416 38.6959 92.08L39.0919 92.308C38.8679 92.724 38.6279 93.068 38.3719 93.34C38.1159 93.612 37.8359 93.812 37.5319 93.94C37.2279 94.068 36.8919 94.132 36.5239 94.132C35.7639 94.132 35.2039 93.896 34.8439 93.424C34.4839 92.944 34.3039 92.316 34.3039 91.54C34.3039 91.076 34.3639 90.624 34.4839 90.184C34.6039 89.744 34.7839 89.352 35.0239 89.008C35.2639 88.656 35.5679 88.38 35.9359 88.18C36.3039 87.972 36.7319 87.868 37.2199 87.868ZM37.0519 88.276C36.6839 88.276 36.3799 88.4 36.1399 88.648C35.9079 88.896 35.7279 89.216 35.5999 89.608C35.4799 90 35.4039 90.412 35.3719 90.844C35.7959 90.788 36.1999 90.688 36.5839 90.544C36.9679 90.4 37.2839 90.216 37.5319 89.992C37.7799 89.76 37.9039 89.492 37.9039 89.188C37.9039 88.932 37.8319 88.716 37.6879 88.54C37.5519 88.364 37.3399 88.276 37.0519 88.276ZM42.9387 87.868C43.2267 87.868 43.4987 87.912 43.7547 88C44.0107 88.088 44.2187 88.232 44.3787 88.432C44.5387 88.632 44.6187 88.904 44.6187 89.248C44.6187 89.576 44.5067 89.86 44.2827 90.1C44.0587 90.34 43.7667 90.54 43.4067 90.7C43.0467 90.852 42.6627 90.976 42.2547 91.072C41.8467 91.168 41.4547 91.236 41.0787 91.276C41.0787 91.772 41.1267 92.188 41.2227 92.524C41.3267 92.86 41.4787 93.112 41.6787 93.28C41.8787 93.448 42.1347 93.532 42.4467 93.532C42.6787 93.532 42.9107 93.48 43.1427 93.376C43.3827 93.272 43.6107 93.116 43.8267 92.908C44.0427 92.692 44.2387 92.416 44.4147 92.08L44.8107 92.308C44.5867 92.724 44.3467 93.068 44.0907 93.34C43.8347 93.612 43.5547 93.812 43.2507 93.94C42.9467 94.068 42.6107 94.132 42.2427 94.132C41.4827 94.132 40.9227 93.896 40.5627 93.424C40.2027 92.944 40.0227 92.316 40.0227 91.54C40.0227 91.076 40.0827 90.624 40.2027 90.184C40.3227 89.744 40.5027 89.352 40.7427 89.008C40.9827 88.656 41.2867 88.38 41.6547 88.18C42.0227 87.972 42.4507 87.868 42.9387 87.868ZM42.7707 88.276C42.4027 88.276 42.0987 88.4 41.8587 88.648C41.6267 88.896 41.4467 89.216 41.3187 89.608C41.1987 90 41.1227 90.412 41.0907 90.844C41.5147 90.788 41.9187 90.688 42.3027 90.544C42.6867 90.4 43.0027 90.216 43.2507 89.992C43.4987 89.76 43.6227 89.492 43.6227 89.188C43.6227 88.932 43.5507 88.716 43.4067 88.54C43.2707 88.364 43.0587 88.276 42.7707 88.276ZM51.9898 85.576C52.7658 85.576 53.4058 85.668 53.9098 85.852C54.4218 86.028 54.8058 86.292 55.0618 86.644C55.3178 86.988 55.4458 87.416 55.4458 87.928C55.4458 88.24 55.3858 88.568 55.2658 88.912C55.1458 89.248 54.9378 89.564 54.6418 89.86C54.3458 90.148 53.9338 90.384 53.4058 90.568C52.8778 90.752 52.2018 90.844 51.3778 90.844C51.3378 90.844 51.2698 90.844 51.1738 90.844C51.0778 90.844 50.9898 90.84 50.9098 90.832L50.8138 92.572C50.8058 92.788 50.7938 92.976 50.7778 93.136C50.7618 93.288 50.7458 93.416 50.7298 93.52C50.8578 93.512 50.9818 93.504 51.1018 93.496C51.2218 93.488 51.3418 93.484 51.4618 93.484C51.5898 93.476 51.7138 93.468 51.8338 93.46L51.8098 94H48.9178L48.9418 93.604C49.2458 93.588 49.4578 93.52 49.5778 93.4C49.6978 93.272 49.7698 93.1 49.7938 92.884C49.8178 92.66 49.8338 92.408 49.8418 92.128L50.1178 86.944C50.1338 86.784 50.1458 86.632 50.1538 86.488C50.1698 86.336 50.1858 86.2 50.2018 86.08C50.0578 86.088 49.9098 86.096 49.7578 86.104C49.6138 86.112 49.4698 86.12 49.3258 86.128L49.3618 85.6C49.7858 85.592 50.2138 85.588 50.6458 85.588C51.0778 85.58 51.5258 85.576 51.9898 85.576ZM51.9418 86.044C51.6938 86.044 51.5098 86.1 51.3898 86.212C51.2698 86.316 51.1938 86.472 51.1618 86.68C51.1298 86.88 51.1058 87.124 51.0898 87.412L50.9338 90.328C51.0858 90.344 51.2178 90.356 51.3298 90.364C51.4418 90.364 51.5698 90.364 51.7138 90.364C52.1698 90.364 52.5898 90.276 52.9738 90.1C53.3658 89.924 53.6818 89.668 53.9218 89.332C54.1618 88.996 54.2938 88.596 54.3178 88.132C54.3338 87.756 54.2898 87.436 54.1858 87.172C54.0818 86.9 53.9218 86.684 53.7058 86.524C53.4978 86.356 53.2418 86.236 52.9378 86.164C52.6418 86.084 52.3098 86.044 51.9418 86.044ZM56.7979 94C56.7899 93.944 56.7859 93.896 56.7859 93.856C56.7859 93.808 56.7859 93.752 56.7859 93.688C56.7859 93.552 56.7899 93.392 56.7979 93.208C56.8059 93.016 56.8219 92.764 56.8459 92.452C56.8779 92.14 56.9219 91.732 56.9779 91.228C57.0339 90.708 57.0779 90.316 57.1099 90.052C57.1419 89.788 57.1659 89.596 57.1819 89.476C57.1979 89.348 57.2059 89.244 57.2059 89.164C57.2139 89.004 57.2019 88.848 57.1699 88.696C57.1459 88.544 57.0499 88.468 56.8819 88.468C56.7539 88.468 56.6059 88.556 56.4379 88.732C56.2699 88.908 56.1259 89.208 56.0059 89.632L55.6699 89.56C55.6939 89.416 55.7419 89.252 55.8139 89.068C55.8939 88.876 55.9979 88.688 56.1259 88.504C56.2539 88.32 56.4099 88.168 56.5939 88.048C56.7779 87.928 56.9899 87.868 57.2299 87.868C57.5899 87.868 57.8299 87.992 57.9499 88.24C58.0699 88.488 58.1219 88.82 58.1059 89.236C58.0979 89.412 58.0739 89.608 58.0339 89.824C58.0019 90.032 57.9659 90.252 57.9259 90.484H57.9619C58.1939 89.788 58.4339 89.252 58.6819 88.876C58.9379 88.5 59.1939 88.24 59.4499 88.096C59.7139 87.944 59.9739 87.868 60.2299 87.868C60.4699 87.868 60.6699 87.932 60.8299 88.06C60.9899 88.18 61.0699 88.348 61.0699 88.564C61.0699 88.708 61.0179 88.84 60.9139 88.96C60.8179 89.08 60.6859 89.14 60.5179 89.14C60.3739 89.14 60.2499 89.096 60.1459 89.008C60.0419 88.92 59.9819 88.796 59.9659 88.636C59.7419 88.588 59.5219 88.66 59.3059 88.852C59.0979 89.044 58.8979 89.32 58.7059 89.68C58.5219 90.032 58.3579 90.428 58.2139 90.868C58.0779 91.308 57.9699 91.756 57.8899 92.212C57.8099 92.668 57.7699 93.092 57.7699 93.484C57.7699 93.604 57.7699 93.696 57.7699 93.76C57.7779 93.816 57.7859 93.896 57.7939 94H56.7979ZM64.3617 87.868C64.7937 87.868 65.1817 87.972 65.5257 88.18C65.8697 88.38 66.1417 88.676 66.3417 89.068C66.5417 89.46 66.6417 89.936 66.6417 90.496C66.6417 91.136 66.5257 91.736 66.2937 92.296C66.0617 92.848 65.7257 93.292 65.2857 93.628C64.8537 93.964 64.3257 94.132 63.7017 94.132C63.1737 94.132 62.7377 94.012 62.3937 93.772C62.0577 93.532 61.8057 93.208 61.6377 92.8C61.4777 92.392 61.3977 91.94 61.3977 91.444C61.3977 90.796 61.5137 90.2 61.7457 89.656C61.9857 89.112 62.3257 88.68 62.7657 88.36C63.2137 88.032 63.7457 87.868 64.3617 87.868ZM64.1817 88.312C63.8297 88.304 63.5257 88.424 63.2697 88.672C63.0137 88.912 62.8137 89.24 62.6697 89.656C62.5337 90.072 62.4617 90.536 62.4537 91.048C62.4457 91.32 62.4617 91.608 62.5017 91.912C62.5417 92.216 62.6097 92.5 62.7057 92.764C62.8097 93.028 62.9497 93.244 63.1257 93.412C63.3097 93.58 63.5377 93.668 63.8097 93.676C64.1297 93.684 64.4017 93.6 64.6257 93.424C64.8497 93.24 65.0297 93.004 65.1657 92.716C65.3017 92.428 65.4017 92.12 65.4657 91.792C65.5377 91.464 65.5777 91.156 65.5857 90.868C65.5937 90.588 65.5777 90.3 65.5377 90.004C65.5057 89.708 65.4377 89.432 65.3337 89.176C65.2297 88.92 65.0857 88.716 64.9017 88.564C64.7177 88.404 64.4777 88.32 64.1817 88.312ZM69.1315 97.252C68.9875 97.252 68.8155 97.236 68.6155 97.204C68.4235 97.172 68.2315 97.116 68.0395 97.036C67.8475 96.964 67.6875 96.86 67.5595 96.724C67.4315 96.596 67.3635 96.436 67.3555 96.244C67.3555 96.132 67.3795 96.028 67.4275 95.932C67.4755 95.844 67.5435 95.772 67.6315 95.716C67.7195 95.66 67.8155 95.632 67.9195 95.632C68.0635 95.632 68.1875 95.676 68.2915 95.764C68.4035 95.86 68.4595 96 68.4595 96.184C68.4595 96.28 68.4355 96.384 68.3875 96.496C68.4675 96.616 68.5875 96.7 68.7475 96.748C68.9155 96.804 69.0715 96.832 69.2155 96.832C69.6715 96.832 70.0315 96.712 70.2955 96.472C70.5675 96.232 70.7755 95.912 70.9195 95.512C71.0635 95.12 71.1675 94.692 71.2315 94.228C71.3035 93.756 71.3555 93.276 71.3875 92.788C71.4195 92.292 71.4635 91.844 71.5195 91.444H71.4835C71.3155 92.02 71.1395 92.488 70.9555 92.848C70.7715 93.2 70.5835 93.472 70.3915 93.664C70.1995 93.848 70.0075 93.972 69.8155 94.036C69.6315 94.1 69.4475 94.132 69.2635 94.132C68.8955 94.132 68.5915 94.032 68.3515 93.832C68.1115 93.624 67.9315 93.344 67.8115 92.992C67.6995 92.64 67.6435 92.244 67.6435 91.804C67.6435 91.284 67.7115 90.792 67.8475 90.328C67.9915 89.856 68.2035 89.436 68.4835 89.068C68.7715 88.692 69.1355 88.4 69.5755 88.192C70.0235 87.976 70.5475 87.868 71.1475 87.868C71.4195 87.868 71.6915 87.888 71.9635 87.928C72.2435 87.96 72.4795 88.008 72.6715 88.072C72.6395 88.552 72.6035 89.04 72.5635 89.536C72.5315 90.032 72.4915 90.524 72.4435 91.012C72.4035 91.5 72.3635 91.98 72.3235 92.452C72.2835 92.924 72.2435 93.384 72.2035 93.832C72.1395 94.608 71.9755 95.248 71.7115 95.752C71.4555 96.256 71.1075 96.632 70.6675 96.88C70.2355 97.128 69.7235 97.252 69.1315 97.252ZM69.5155 93.568C69.7395 93.568 69.9555 93.46 70.1635 93.244C70.3795 93.02 70.5755 92.728 70.7515 92.368C70.9355 92 71.0955 91.592 71.2315 91.144C71.3755 90.696 71.4915 90.24 71.5795 89.776C71.6675 89.304 71.7235 88.864 71.7475 88.456C71.6435 88.4 71.5195 88.36 71.3755 88.336C71.2395 88.312 71.0995 88.3 70.9555 88.3C70.5155 88.3 70.1475 88.408 69.8515 88.624C69.5555 88.832 69.3195 89.108 69.1435 89.452C68.9675 89.788 68.8395 90.148 68.7595 90.532C68.6875 90.908 68.6515 91.264 68.6515 91.6C68.6515 91.968 68.6755 92.3 68.7235 92.596C68.7795 92.892 68.8715 93.128 68.9995 93.304C69.1275 93.48 69.2995 93.568 69.5155 93.568ZM74.6104 94C74.6024 93.944 74.5984 93.896 74.5984 93.856C74.5984 93.808 74.5984 93.752 74.5984 93.688C74.5984 93.552 74.6024 93.392 74.6104 93.208C74.6184 93.016 74.6344 92.764 74.6584 92.452C74.6904 92.14 74.7344 91.732 74.7904 91.228C74.8464 90.708 74.8904 90.316 74.9224 90.052C74.9544 89.788 74.9784 89.596 74.9944 89.476C75.0104 89.348 75.0184 89.244 75.0184 89.164C75.0264 89.004 75.0144 88.848 74.9824 88.696C74.9584 88.544 74.8624 88.468 74.6944 88.468C74.5664 88.468 74.4184 88.556 74.2504 88.732C74.0824 88.908 73.9384 89.208 73.8184 89.632L73.4824 89.56C73.5064 89.416 73.5544 89.252 73.6264 89.068C73.7064 88.876 73.8104 88.688 73.9384 88.504C74.0664 88.32 74.2224 88.168 74.4064 88.048C74.5904 87.928 74.8024 87.868 75.0424 87.868C75.4024 87.868 75.6424 87.992 75.7624 88.24C75.8824 88.488 75.9344 88.82 75.9184 89.236C75.9104 89.412 75.8864 89.608 75.8464 89.824C75.8144 90.032 75.7784 90.252 75.7384 90.484H75.7744C76.0064 89.788 76.2464 89.252 76.4944 88.876C76.7504 88.5 77.0064 88.24 77.2624 88.096C77.5264 87.944 77.7864 87.868 78.0424 87.868C78.2824 87.868 78.4824 87.932 78.6424 88.06C78.8024 88.18 78.8824 88.348 78.8824 88.564C78.8824 88.708 78.8304 88.84 78.7264 88.96C78.6304 89.08 78.4984 89.14 78.3304 89.14C78.1864 89.14 78.0624 89.096 77.9584 89.008C77.8544 88.92 77.7944 88.796 77.7784 88.636C77.5544 88.588 77.3344 88.66 77.1184 88.852C76.9104 89.044 76.7104 89.32 76.5184 89.68C76.3344 90.032 76.1704 90.428 76.0264 90.868C75.8904 91.308 75.7824 91.756 75.7024 92.212C75.6224 92.668 75.5824 93.092 75.5824 93.484C75.5824 93.604 75.5824 93.696 75.5824 93.76C75.5904 93.816 75.5984 93.896 75.6064 94H74.6104ZM82.6199 87.868C82.8599 87.868 83.1239 87.888 83.4119 87.928C83.6999 87.96 83.9719 88.008 84.2279 88.072C84.1639 88.552 84.0999 89.032 84.0359 89.512C83.9799 89.984 83.9239 90.436 83.8679 90.868C83.8199 91.292 83.7799 91.676 83.7479 92.02C83.7159 92.356 83.6999 92.62 83.6999 92.812C83.6999 92.972 83.7119 93.132 83.7359 93.292C83.7599 93.452 83.8599 93.532 84.0359 93.532C84.1719 93.532 84.3199 93.444 84.4799 93.268C84.6479 93.092 84.7919 92.792 84.9119 92.368L85.2479 92.44C85.2239 92.584 85.1719 92.752 85.0919 92.944C85.0199 93.128 84.9199 93.312 84.7919 93.496C84.6639 93.68 84.5079 93.832 84.3239 93.952C84.1399 94.072 83.9279 94.132 83.6879 94.132C83.3679 94.132 83.1399 94.032 83.0039 93.832C82.8679 93.632 82.7999 93.372 82.7999 93.052C82.7999 92.82 82.8199 92.568 82.8599 92.296C82.9079 92.024 82.9599 91.74 83.0159 91.444H82.9799C82.7879 92.036 82.5879 92.512 82.3799 92.872C82.1799 93.224 81.9759 93.492 81.7679 93.676C81.5679 93.86 81.3719 93.98 81.1799 94.036C80.9879 94.1 80.8079 94.132 80.6399 94.132C80.2079 94.132 79.8439 93.972 79.5479 93.652C79.2599 93.332 79.1159 92.796 79.1159 92.044C79.1159 91.484 79.1879 90.952 79.3319 90.448C79.4759 89.944 79.6919 89.5 79.9799 89.116C80.2759 88.724 80.6439 88.42 81.0839 88.204C81.5239 87.98 82.0359 87.868 82.6199 87.868ZM82.2479 88.3C81.8879 88.3 81.5719 88.4 81.2999 88.6C81.0359 88.8 80.8159 89.072 80.6399 89.416C80.4639 89.752 80.3319 90.132 80.2439 90.556C80.1639 90.972 80.1239 91.4 80.1239 91.84C80.1239 92.352 80.1799 92.776 80.2919 93.112C80.4039 93.44 80.6079 93.604 80.9039 93.604C81.1199 93.604 81.3359 93.496 81.5519 93.28C81.7759 93.064 81.9839 92.776 82.1759 92.416C82.3679 92.048 82.5399 91.64 82.6919 91.192C82.8439 90.736 82.9639 90.272 83.0519 89.8C83.1399 89.328 83.1839 88.876 83.1839 88.444C83.0639 88.396 82.9239 88.36 82.7639 88.336C82.6039 88.312 82.4319 88.3 82.2479 88.3ZM94.0421 94.132C93.6661 94.132 93.4101 94.032 93.2741 93.832C93.1461 93.632 93.0821 93.348 93.0821 92.98C93.0821 92.756 93.1021 92.492 93.1421 92.188C93.1901 91.884 93.2421 91.56 93.2981 91.216C93.3541 90.872 93.4021 90.524 93.4421 90.172C93.4901 89.82 93.5141 89.484 93.5141 89.164C93.5141 89.068 93.4981 88.964 93.4661 88.852C93.4341 88.74 93.3781 88.644 93.2981 88.564C93.2181 88.476 93.0981 88.432 92.9381 88.432C92.7141 88.432 92.4941 88.536 92.2781 88.744C92.0621 88.952 91.8621 89.232 91.6781 89.584C91.4941 89.936 91.3301 90.328 91.1861 90.76C91.0501 91.184 90.9421 91.624 90.8621 92.08C90.7821 92.528 90.7421 92.956 90.7421 93.364C90.7421 93.484 90.7421 93.596 90.7421 93.7C90.7501 93.796 90.7581 93.896 90.7661 94H89.7581C89.7501 93.944 89.7461 93.896 89.7461 93.856C89.7461 93.808 89.7461 93.752 89.7461 93.688C89.7461 93.384 89.7661 93.024 89.8061 92.608C89.8541 92.192 89.9061 91.764 89.9621 91.324C90.0261 90.884 90.0781 90.468 90.1181 90.076C90.1661 89.684 90.1861 89.364 90.1781 89.116C90.1701 88.98 90.1301 88.832 90.0581 88.672C89.9861 88.512 89.8341 88.432 89.6021 88.432C89.3781 88.432 89.1581 88.536 88.9421 88.744C88.7341 88.952 88.5381 89.232 88.3541 89.584C88.1701 89.936 88.0061 90.328 87.8621 90.76C87.7181 91.184 87.6061 91.624 87.5261 92.08C87.4461 92.528 87.4061 92.956 87.4061 93.364C87.4061 93.484 87.4061 93.596 87.4061 93.7C87.4141 93.796 87.4221 93.896 87.4301 94H86.4221C86.4141 93.944 86.4101 93.896 86.4101 93.856C86.4101 93.808 86.4101 93.752 86.4101 93.688C86.4101 93.552 86.4141 93.396 86.4221 93.22C86.4381 93.036 86.4621 92.796 86.4941 92.5C86.5341 92.196 86.5821 91.792 86.6381 91.288C86.6941 90.816 86.7381 90.448 86.7701 90.184C86.8021 89.92 86.8261 89.72 86.8421 89.584C86.8581 89.44 86.8661 89.332 86.8661 89.26C86.8741 89.18 86.8781 89.096 86.8781 89.008C86.8781 88.864 86.8581 88.74 86.8181 88.636C86.7781 88.524 86.6901 88.468 86.5541 88.468C86.4261 88.468 86.2781 88.556 86.1101 88.732C85.9421 88.908 85.7981 89.208 85.6781 89.632L85.3421 89.56C85.3661 89.416 85.4141 89.252 85.4861 89.068C85.5661 88.876 85.6701 88.688 85.7981 88.504C85.9261 88.32 86.0821 88.168 86.2661 88.048C86.4501 87.928 86.6621 87.868 86.9021 87.868C87.1661 87.868 87.3621 87.936 87.4901 88.072C87.6181 88.2 87.7021 88.372 87.7421 88.588C87.7901 88.796 87.8061 89.024 87.7901 89.272C87.7821 89.496 87.7581 89.724 87.7181 89.956C87.6781 90.18 87.6421 90.376 87.6101 90.544H87.6461C87.9021 89.816 88.1541 89.26 88.4021 88.876C88.6581 88.492 88.9061 88.228 89.1461 88.084C89.3941 87.94 89.6261 87.868 89.8421 87.868C90.1621 87.868 90.4141 87.944 90.5981 88.096C90.7901 88.24 90.9261 88.416 91.0061 88.624C91.0861 88.832 91.1261 89.036 91.1261 89.236C91.1261 89.46 91.1101 89.652 91.0781 89.812C91.0461 89.972 90.9941 90.204 90.9221 90.508H90.9581C91.2221 89.78 91.4821 89.228 91.7381 88.852C92.0021 88.468 92.2581 88.208 92.5061 88.072C92.7541 87.936 92.9861 87.868 93.2021 87.868C93.5221 87.868 93.7741 87.94 93.9581 88.084C94.1421 88.228 94.2701 88.42 94.3421 88.66C94.4221 88.892 94.4621 89.148 94.4621 89.428C94.4621 89.868 94.4301 90.32 94.3661 90.784C94.3021 91.24 94.2341 91.664 94.1621 92.056C94.0981 92.44 94.0661 92.748 94.0661 92.98C94.0661 93.124 94.0821 93.252 94.1141 93.364C94.1541 93.476 94.2461 93.532 94.3901 93.532C94.5261 93.532 94.6781 93.448 94.8461 93.28C95.0141 93.104 95.1581 92.8 95.2781 92.368L95.6141 92.452C95.5901 92.588 95.5381 92.752 95.4581 92.944C95.3781 93.136 95.2741 93.324 95.1461 93.508C95.0181 93.684 94.8621 93.832 94.6781 93.952C94.4941 94.072 94.2821 94.132 94.0421 94.132ZM104.554 94.132C104.178 94.132 103.922 94.032 103.786 93.832C103.658 93.632 103.594 93.348 103.594 92.98C103.594 92.756 103.614 92.492 103.654 92.188C103.702 91.884 103.754 91.56 103.81 91.216C103.866 90.872 103.914 90.524 103.954 90.172C104.002 89.82 104.026 89.484 104.026 89.164C104.026 89.068 104.01 88.964 103.978 88.852C103.946 88.74 103.89 88.644 103.81 88.564C103.73 88.476 103.61 88.432 103.45 88.432C103.226 88.432 103.006 88.536 102.79 88.744C102.574 88.952 102.374 89.232 102.19 89.584C102.006 89.936 101.842 90.328 101.698 90.76C101.562 91.184 101.454 91.624 101.374 92.08C101.294 92.528 101.254 92.956 101.254 93.364C101.254 93.484 101.254 93.596 101.254 93.7C101.262 93.796 101.27 93.896 101.278 94H100.27C100.262 93.944 100.258 93.896 100.258 93.856C100.258 93.808 100.258 93.752 100.258 93.688C100.258 93.384 100.278 93.024 100.318 92.608C100.366 92.192 100.418 91.764 100.474 91.324C100.538 90.884 100.59 90.468 100.63 90.076C100.678 89.684 100.698 89.364 100.69 89.116C100.682 88.98 100.642 88.832 100.57 88.672C100.498 88.512 100.346 88.432 100.114 88.432C99.8898 88.432 99.6698 88.536 99.4538 88.744C99.2458 88.952 99.0498 89.232 98.8658 89.584C98.6818 89.936 98.5178 90.328 98.3738 90.76C98.2298 91.184 98.1178 91.624 98.0378 92.08C97.9578 92.528 97.9178 92.956 97.9178 93.364C97.9178 93.484 97.9178 93.596 97.9178 93.7C97.9258 93.796 97.9338 93.896 97.9418 94H96.9338C96.9258 93.944 96.9218 93.896 96.9218 93.856C96.9218 93.808 96.9218 93.752 96.9218 93.688C96.9218 93.552 96.9258 93.396 96.9338 93.22C96.9498 93.036 96.9738 92.796 97.0058 92.5C97.0458 92.196 97.0938 91.792 97.1498 91.288C97.2058 90.816 97.2498 90.448 97.2818 90.184C97.3138 89.92 97.3378 89.72 97.3538 89.584C97.3698 89.44 97.3778 89.332 97.3778 89.26C97.3858 89.18 97.3898 89.096 97.3898 89.008C97.3898 88.864 97.3698 88.74 97.3298 88.636C97.2898 88.524 97.2018 88.468 97.0658 88.468C96.9378 88.468 96.7898 88.556 96.6218 88.732C96.4538 88.908 96.3098 89.208 96.1898 89.632L95.8538 89.56C95.8778 89.416 95.9258 89.252 95.9978 89.068C96.0778 88.876 96.1818 88.688 96.3098 88.504C96.4378 88.32 96.5938 88.168 96.7778 88.048C96.9618 87.928 97.1738 87.868 97.4138 87.868C97.6778 87.868 97.8738 87.936 98.0018 88.072C98.1298 88.2 98.2138 88.372 98.2538 88.588C98.3018 88.796 98.3178 89.024 98.3018 89.272C98.2938 89.496 98.2698 89.724 98.2298 89.956C98.1898 90.18 98.1538 90.376 98.1218 90.544H98.1578C98.4138 89.816 98.6658 89.26 98.9138 88.876C99.1698 88.492 99.4178 88.228 99.6578 88.084C99.9058 87.94 100.138 87.868 100.354 87.868C100.674 87.868 100.926 87.944 101.11 88.096C101.302 88.24 101.438 88.416 101.518 88.624C101.598 88.832 101.638 89.036 101.638 89.236C101.638 89.46 101.622 89.652 101.59 89.812C101.558 89.972 101.506 90.204 101.434 90.508H101.47C101.734 89.78 101.994 89.228 102.25 88.852C102.514 88.468 102.77 88.208 103.018 88.072C103.266 87.936 103.498 87.868 103.714 87.868C104.034 87.868 104.286 87.94 104.47 88.084C104.654 88.228 104.782 88.42 104.854 88.66C104.934 88.892 104.974 89.148 104.974 89.428C104.974 89.868 104.942 90.32 104.878 90.784C104.814 91.24 104.746 91.664 104.674 92.056C104.61 92.44 104.578 92.748 104.578 92.98C104.578 93.124 104.594 93.252 104.626 93.364C104.666 93.476 104.758 93.532 104.902 93.532C105.038 93.532 105.19 93.448 105.358 93.28C105.526 93.104 105.67 92.8 105.79 92.368L106.126 92.452C106.102 92.588 106.05 92.752 105.97 92.944C105.89 93.136 105.786 93.324 105.658 93.508C105.53 93.684 105.374 93.832 105.19 93.952C105.006 94.072 104.794 94.132 104.554 94.132ZM107.866 87.868C108.202 87.868 108.454 87.984 108.622 88.216C108.79 88.44 108.874 88.74 108.874 89.116C108.874 89.356 108.85 89.632 108.802 89.944C108.762 90.248 108.71 90.576 108.646 90.928C108.582 91.28 108.526 91.636 108.478 91.996C108.438 92.348 108.418 92.692 108.418 93.028C108.418 93.188 108.446 93.312 108.502 93.4C108.566 93.488 108.662 93.532 108.79 93.532C108.926 93.532 109.074 93.444 109.234 93.268C109.402 93.092 109.546 92.792 109.666 92.368L110.002 92.44C109.97 92.608 109.914 92.792 109.834 92.992C109.762 93.184 109.666 93.368 109.546 93.544C109.426 93.712 109.278 93.852 109.102 93.964C108.934 94.076 108.738 94.132 108.514 94.132C108.146 94.132 107.874 94.036 107.698 93.844C107.522 93.652 107.434 93.372 107.434 93.004C107.434 92.652 107.458 92.312 107.506 91.984C107.554 91.648 107.606 91.32 107.662 91C107.726 90.672 107.782 90.344 107.83 90.016C107.878 89.688 107.902 89.352 107.902 89.008C107.902 88.904 107.878 88.788 107.83 88.66C107.79 88.532 107.702 88.468 107.566 88.468C107.438 88.468 107.29 88.556 107.122 88.732C106.954 88.908 106.81 89.208 106.69 89.632L106.354 89.56C106.378 89.416 106.426 89.252 106.498 89.068C106.57 88.876 106.666 88.688 106.786 88.504C106.914 88.32 107.066 88.168 107.242 88.048C107.418 87.928 107.626 87.868 107.866 87.868ZM108.55 85.276C108.734 85.276 108.886 85.34 109.006 85.468C109.126 85.588 109.186 85.752 109.186 85.96C109.186 86.16 109.122 86.324 108.994 86.452C108.866 86.572 108.714 86.632 108.538 86.632C108.362 86.632 108.21 86.572 108.082 86.452C107.962 86.324 107.902 86.16 107.902 85.96C107.902 85.752 107.966 85.588 108.094 85.468C108.222 85.34 108.374 85.276 108.55 85.276ZM115.836 94.132C115.46 94.132 115.204 94.032 115.068 93.832C114.932 93.632 114.864 93.348 114.864 92.98C114.864 92.756 114.88 92.492 114.912 92.188C114.952 91.884 114.996 91.56 115.044 91.216C115.1 90.872 115.144 90.524 115.176 90.172C115.216 89.82 115.236 89.484 115.236 89.164C115.236 89.068 115.22 88.964 115.188 88.852C115.164 88.74 115.112 88.644 115.032 88.564C114.952 88.476 114.832 88.432 114.672 88.432C114.448 88.432 114.224 88.536 114 88.744C113.776 88.952 113.564 89.232 113.364 89.584C113.164 89.936 112.984 90.328 112.824 90.76C112.664 91.184 112.536 91.624 112.44 92.08C112.352 92.528 112.308 92.956 112.308 93.364C112.308 93.484 112.308 93.596 112.308 93.7C112.316 93.796 112.324 93.896 112.332 94H111.324C111.316 93.944 111.312 93.896 111.312 93.856C111.312 93.808 111.312 93.752 111.312 93.688C111.312 93.552 111.32 93.396 111.336 93.22C111.352 93.036 111.376 92.796 111.408 92.5C111.448 92.196 111.496 91.792 111.552 91.288C111.608 90.816 111.648 90.448 111.672 90.184C111.704 89.92 111.728 89.72 111.744 89.584C111.76 89.44 111.768 89.332 111.768 89.26C111.776 89.18 111.78 89.096 111.78 89.008C111.78 88.864 111.76 88.74 111.72 88.636C111.68 88.524 111.592 88.468 111.456 88.468C111.328 88.468 111.18 88.556 111.012 88.732C110.844 88.908 110.7 89.208 110.58 89.632L110.244 89.56C110.268 89.416 110.316 89.252 110.388 89.068C110.468 88.876 110.572 88.688 110.7 88.504C110.828 88.32 110.984 88.168 111.168 88.048C111.352 87.928 111.564 87.868 111.804 87.868C112.076 87.868 112.276 87.944 112.404 88.096C112.54 88.24 112.624 88.428 112.656 88.66C112.696 88.892 112.708 89.14 112.692 89.404C112.676 89.628 112.648 89.844 112.608 90.052C112.576 90.26 112.544 90.444 112.512 90.604H112.548C112.82 89.876 113.088 89.316 113.352 88.924C113.616 88.524 113.876 88.248 114.132 88.096C114.396 87.944 114.656 87.868 114.912 87.868C115.232 87.868 115.488 87.94 115.68 88.084C115.872 88.228 116.008 88.42 116.088 88.66C116.176 88.892 116.22 89.148 116.22 89.428C116.22 89.868 116.188 90.32 116.124 90.784C116.068 91.24 116.008 91.664 115.944 92.056C115.888 92.44 115.86 92.748 115.86 92.98C115.86 93.124 115.876 93.252 115.908 93.364C115.948 93.476 116.04 93.532 116.184 93.532C116.32 93.532 116.468 93.448 116.628 93.28C116.796 93.104 116.94 92.8 117.06 92.368L117.396 92.452C117.372 92.588 117.32 92.752 117.24 92.944C117.168 93.136 117.068 93.324 116.94 93.508C116.812 93.684 116.656 93.832 116.472 93.952C116.288 94.072 116.076 94.132 115.836 94.132ZM119.487 97.252C119.343 97.252 119.171 97.236 118.971 97.204C118.779 97.172 118.587 97.116 118.395 97.036C118.203 96.964 118.043 96.86 117.915 96.724C117.787 96.596 117.719 96.436 117.711 96.244C117.711 96.132 117.735 96.028 117.783 95.932C117.831 95.844 117.899 95.772 117.987 95.716C118.075 95.66 118.171 95.632 118.275 95.632C118.419 95.632 118.543 95.676 118.647 95.764C118.759 95.86 118.815 96 118.815 96.184C118.815 96.28 118.791 96.384 118.743 96.496C118.823 96.616 118.943 96.7 119.103 96.748C119.271 96.804 119.427 96.832 119.571 96.832C120.027 96.832 120.387 96.712 120.651 96.472C120.923 96.232 121.131 95.912 121.275 95.512C121.419 95.12 121.523 94.692 121.587 94.228C121.659 93.756 121.711 93.276 121.743 92.788C121.775 92.292 121.819 91.844 121.875 91.444H121.839C121.671 92.02 121.495 92.488 121.311 92.848C121.127 93.2 120.939 93.472 120.747 93.664C120.555 93.848 120.363 93.972 120.171 94.036C119.987 94.1 119.803 94.132 119.619 94.132C119.251 94.132 118.947 94.032 118.707 93.832C118.467 93.624 118.287 93.344 118.167 92.992C118.055 92.64 117.999 92.244 117.999 91.804C117.999 91.284 118.067 90.792 118.203 90.328C118.347 89.856 118.559 89.436 118.839 89.068C119.127 88.692 119.491 88.4 119.931 88.192C120.379 87.976 120.903 87.868 121.503 87.868C121.775 87.868 122.047 87.888 122.319 87.928C122.599 87.96 122.835 88.008 123.027 88.072C122.995 88.552 122.959 89.04 122.919 89.536C122.887 90.032 122.847 90.524 122.799 91.012C122.759 91.5 122.719 91.98 122.679 92.452C122.639 92.924 122.599 93.384 122.559 93.832C122.495 94.608 122.331 95.248 122.067 95.752C121.811 96.256 121.463 96.632 121.023 96.88C120.591 97.128 120.079 97.252 119.487 97.252ZM119.871 93.568C120.095 93.568 120.311 93.46 120.519 93.244C120.735 93.02 120.931 92.728 121.107 92.368C121.291 92 121.451 91.592 121.587 91.144C121.731 90.696 121.847 90.24 121.935 89.776C122.023 89.304 122.079 88.864 122.103 88.456C121.999 88.4 121.875 88.36 121.731 88.336C121.595 88.312 121.455 88.3 121.311 88.3C120.871 88.3 120.503 88.408 120.207 88.624C119.911 88.832 119.675 89.108 119.499 89.452C119.323 89.788 119.195 90.148 119.115 90.532C119.043 90.908 119.007 91.264 119.007 91.6C119.007 91.968 119.031 92.3 119.079 92.596C119.135 92.892 119.227 93.128 119.355 93.304C119.483 93.48 119.655 93.568 119.871 93.568ZM130.506 85.576C131.434 85.576 132.142 85.74 132.63 86.068C133.126 86.396 133.35 86.916 133.302 87.628C133.286 87.884 133.202 88.14 133.05 88.396C132.898 88.652 132.674 88.88 132.378 89.08C132.082 89.272 131.71 89.408 131.262 89.488V89.512C132.142 89.512 132.79 89.716 133.206 90.124C133.622 90.524 133.81 91.032 133.77 91.648C133.746 92.136 133.602 92.556 133.338 92.908C133.082 93.26 132.738 93.532 132.306 93.724C131.882 93.908 131.398 94 130.854 94H127.386L127.41 93.604C127.714 93.596 127.926 93.528 128.046 93.4C128.166 93.264 128.238 93.084 128.262 92.86C128.286 92.628 128.306 92.364 128.322 92.068L128.586 87.028C128.594 86.812 128.606 86.628 128.622 86.476C128.638 86.316 128.654 86.184 128.67 86.08C128.526 86.088 128.378 86.096 128.226 86.104C128.082 86.112 127.938 86.12 127.794 86.128L127.83 85.6C128.27 85.6 128.706 85.596 129.138 85.588C129.57 85.58 130.026 85.576 130.506 85.576ZM130.674 89.836C130.434 89.836 130.214 89.84 130.014 89.848C129.822 89.848 129.63 89.856 129.438 89.872L129.294 92.572C129.286 92.788 129.274 92.972 129.258 93.124C129.242 93.276 129.226 93.404 129.21 93.508C129.338 93.516 129.49 93.524 129.666 93.532C129.85 93.532 130.018 93.532 130.17 93.532C130.33 93.532 130.434 93.532 130.482 93.532C131.098 93.532 131.602 93.38 131.994 93.076C132.394 92.772 132.61 92.32 132.642 91.72C132.666 91.248 132.586 90.876 132.402 90.604C132.226 90.324 131.986 90.128 131.682 90.016C131.378 89.896 131.042 89.836 130.674 89.836ZM130.542 86.008C130.286 86.008 130.09 86.044 129.954 86.116C129.826 86.188 129.734 86.308 129.678 86.476C129.63 86.644 129.598 86.876 129.582 87.172L129.462 89.404C129.614 89.404 129.766 89.404 129.918 89.404C130.07 89.396 130.21 89.388 130.338 89.38C130.794 89.356 131.158 89.256 131.43 89.08C131.71 88.904 131.914 88.684 132.042 88.42C132.17 88.148 132.238 87.864 132.246 87.568C132.262 87.136 132.182 86.808 132.006 86.584C131.83 86.36 131.606 86.208 131.334 86.128C131.07 86.048 130.806 86.008 130.542 86.008ZM137.768 87.868C138.2 87.868 138.588 87.972 138.932 88.18C139.276 88.38 139.548 88.676 139.748 89.068C139.948 89.46 140.048 89.936 140.048 90.496C140.048 91.136 139.932 91.736 139.7 92.296C139.468 92.848 139.132 93.292 138.692 93.628C138.26 93.964 137.732 94.132 137.108 94.132C136.58 94.132 136.144 94.012 135.8 93.772C135.464 93.532 135.212 93.208 135.044 92.8C134.884 92.392 134.804 91.94 134.804 91.444C134.804 90.796 134.92 90.2 135.152 89.656C135.392 89.112 135.732 88.68 136.172 88.36C136.62 88.032 137.152 87.868 137.768 87.868ZM137.588 88.312C137.236 88.304 136.932 88.424 136.676 88.672C136.42 88.912 136.22 89.24 136.076 89.656C135.94 90.072 135.868 90.536 135.86 91.048C135.852 91.32 135.868 91.608 135.908 91.912C135.948 92.216 136.016 92.5 136.112 92.764C136.216 93.028 136.356 93.244 136.532 93.412C136.716 93.58 136.944 93.668 137.216 93.676C137.536 93.684 137.808 93.6 138.032 93.424C138.256 93.24 138.436 93.004 138.572 92.716C138.708 92.428 138.808 92.12 138.872 91.792C138.944 91.464 138.984 91.156 138.992 90.868C139 90.588 138.984 90.3 138.944 90.004C138.912 89.708 138.844 89.432 138.74 89.176C138.636 88.92 138.492 88.716 138.308 88.564C138.124 88.404 137.884 88.32 137.588 88.312ZM144.026 87.868C144.458 87.868 144.846 87.972 145.19 88.18C145.534 88.38 145.806 88.676 146.006 89.068C146.206 89.46 146.306 89.936 146.306 90.496C146.306 91.136 146.19 91.736 145.958 92.296C145.726 92.848 145.39 93.292 144.95 93.628C144.518 93.964 143.99 94.132 143.366 94.132C142.838 94.132 142.402 94.012 142.058 93.772C141.722 93.532 141.47 93.208 141.302 92.8C141.142 92.392 141.062 91.94 141.062 91.444C141.062 90.796 141.178 90.2 141.41 89.656C141.65 89.112 141.99 88.68 142.43 88.36C142.878 88.032 143.41 87.868 144.026 87.868ZM143.846 88.312C143.494 88.304 143.19 88.424 142.934 88.672C142.678 88.912 142.478 89.24 142.334 89.656C142.198 90.072 142.126 90.536 142.118 91.048C142.11 91.32 142.126 91.608 142.166 91.912C142.206 92.216 142.274 92.5 142.37 92.764C142.474 93.028 142.614 93.244 142.79 93.412C142.974 93.58 143.202 93.668 143.474 93.676C143.794 93.684 144.066 93.6 144.29 93.424C144.514 93.24 144.694 93.004 144.83 92.716C144.966 92.428 145.066 92.12 145.13 91.792C145.202 91.464 145.242 91.156 145.25 90.868C145.258 90.588 145.242 90.3 145.202 90.004C145.17 89.708 145.102 89.432 144.998 89.176C144.894 88.92 144.75 88.716 144.566 88.564C144.382 88.404 144.142 88.32 143.846 88.312ZM151.46 94.132C151.156 94.132 150.9 94.008 150.692 93.76C150.492 93.512 150.288 93.112 150.08 92.56C149.928 92.16 149.792 91.872 149.672 91.696C149.552 91.52 149.376 91.428 149.144 91.42C149.088 91.42 149.036 91.424 148.988 91.432C148.94 91.432 148.888 91.432 148.832 91.432C148.744 91.76 148.672 92.092 148.616 92.428C148.568 92.756 148.544 93.068 148.544 93.364C148.544 93.484 148.544 93.596 148.544 93.7C148.552 93.796 148.56 93.896 148.568 94H147.584C147.576 93.944 147.572 93.896 147.572 93.856C147.572 93.808 147.572 93.752 147.572 93.688C147.572 93.464 147.584 93.132 147.608 92.692C147.632 92.244 147.664 91.736 147.704 91.168C147.744 90.6 147.788 90.016 147.836 89.416C147.884 88.816 147.936 88.248 147.992 87.712C148.056 87.168 148.116 86.708 148.172 86.332C148.204 86.124 148.224 85.992 148.232 85.936C148.248 85.88 148.264 85.8 148.28 85.696C148.144 85.704 148.004 85.712 147.86 85.72C147.716 85.728 147.576 85.736 147.44 85.744L147.488 85.264C147.84 85.264 148.112 85.248 148.304 85.216C148.504 85.184 148.652 85.144 148.748 85.096C148.844 85.048 148.924 84.996 148.988 84.94H149.336C149.296 85.14 149.256 85.364 149.216 85.612C149.184 85.86 149.152 86.104 149.12 86.344C149.088 86.584 149.06 86.796 149.036 86.98C148.964 87.54 148.896 88.124 148.832 88.732C148.776 89.34 148.728 89.944 148.688 90.544H148.724C148.964 89.832 149.208 89.284 149.456 88.9C149.712 88.516 149.976 88.248 150.248 88.096C150.52 87.944 150.796 87.868 151.076 87.868C151.356 87.868 151.58 87.932 151.748 88.06C151.916 88.18 152.04 88.34 152.12 88.54C152.2 88.74 152.24 88.948 152.24 89.164C152.24 89.444 152.156 89.736 151.988 90.04C151.82 90.344 151.564 90.616 151.22 90.856C150.884 91.088 150.452 91.252 149.924 91.348V91.36C150.204 91.368 150.416 91.436 150.56 91.564C150.712 91.684 150.852 91.896 150.98 92.2C151.068 92.384 151.152 92.572 151.232 92.764C151.32 92.956 151.412 93.116 151.508 93.244C151.604 93.372 151.708 93.444 151.82 93.46C151.956 93.468 152.072 93.42 152.168 93.316C152.264 93.212 152.348 93.012 152.42 92.716L152.756 92.776C152.708 93 152.628 93.216 152.516 93.424C152.412 93.632 152.272 93.804 152.096 93.94C151.92 94.068 151.708 94.132 151.46 94.132ZM148.928 91.084C149.688 91.084 150.268 90.92 150.668 90.592C151.068 90.264 151.268 89.796 151.268 89.188C151.268 89.084 151.256 88.972 151.232 88.852C151.208 88.732 151.156 88.628 151.076 88.54C150.996 88.452 150.872 88.416 150.704 88.432C150.488 88.448 150.268 88.58 150.044 88.828C149.828 89.076 149.624 89.4 149.432 89.8C149.24 90.192 149.072 90.62 148.928 91.084ZM155.366 94.132C155.046 94.132 154.738 94.084 154.442 93.988C154.146 93.884 153.906 93.736 153.722 93.544C153.538 93.352 153.446 93.12 153.446 92.848C153.446 92.672 153.494 92.532 153.59 92.428C153.694 92.316 153.818 92.26 153.962 92.26C154.122 92.26 154.242 92.312 154.322 92.416C154.41 92.52 154.454 92.636 154.454 92.764C154.454 92.82 154.446 92.88 154.43 92.944C154.414 93.008 154.386 93.072 154.346 93.136C154.41 93.312 154.538 93.448 154.73 93.544C154.922 93.64 155.126 93.688 155.342 93.688C155.774 93.688 156.098 93.588 156.314 93.388C156.53 93.188 156.638 92.908 156.638 92.548C156.638 92.332 156.562 92.14 156.41 91.972C156.258 91.804 156.066 91.648 155.834 91.504C155.602 91.352 155.362 91.204 155.114 91.06C154.882 90.916 154.658 90.768 154.442 90.616C154.234 90.464 154.062 90.296 153.926 90.112C153.798 89.928 153.734 89.72 153.734 89.488C153.734 89.192 153.822 88.924 153.998 88.684C154.174 88.436 154.418 88.24 154.73 88.096C155.042 87.944 155.402 87.868 155.81 87.868C156.114 87.868 156.398 87.916 156.662 88.012C156.934 88.108 157.154 88.244 157.322 88.42C157.498 88.596 157.586 88.804 157.586 89.044C157.586 89.212 157.538 89.348 157.442 89.452C157.346 89.548 157.226 89.596 157.082 89.596C156.938 89.596 156.822 89.548 156.734 89.452C156.646 89.356 156.602 89.244 156.602 89.116C156.602 89.052 156.61 88.992 156.626 88.936C156.642 88.872 156.67 88.808 156.71 88.744C156.67 88.608 156.57 88.496 156.41 88.408C156.258 88.312 156.046 88.264 155.774 88.264C155.598 88.264 155.426 88.304 155.258 88.384C155.09 88.464 154.95 88.576 154.838 88.72C154.726 88.856 154.67 89.02 154.67 89.212C154.67 89.364 154.714 89.504 154.802 89.632C154.898 89.76 155.022 89.88 155.174 89.992C155.326 90.104 155.49 90.216 155.666 90.328C155.954 90.496 156.25 90.676 156.554 90.868C156.858 91.052 157.11 91.264 157.31 91.504C157.518 91.744 157.622 92.036 157.622 92.38C157.622 92.716 157.526 93.016 157.334 93.28C157.15 93.544 156.886 93.752 156.542 93.904C156.206 94.056 155.814 94.132 155.366 94.132Z" fill="#757575"/>
</g>
<defs>
<filter id="filter0_d_280_2911" x="0" y="0" width="182" height="132" filterUnits="userSpaceOnUse" color-interpolation-filters="sRGB">
<feFlood flood-opacity="0" result="BackgroundImageFix"/>
<feColorMatrix in="SourceAlpha" type="matrix" values="0 0 0 0 0 0 0 0 0 0 0 0 0 0 0 0 0 0 127 0" result="hardAlpha"/>
<feOffset dy="4"/>
<feGaussianBlur stdDeviation="2"/>
<feComposite in2="hardAlpha" operator="out"/>
<feColorMatrix type="matrix" values="0 0 0 0 0 0 0 0 0 0 0 0 0 0 0 0 0 0 0.25 0"/>
<feBlend mode="normal" in2="BackgroundImageFix" result="effect1_dropShadow_280_2911"/>
<feBlend mode="normal" in="SourceGraphic" in2="effect1_dropShadow_280_2911" result="shape"/>
</filter>
<clipPath id="clip0_280_2911">
<rect x="69" y="16" width="44" height="36" rx="5" fill="white"/>
</clipPath>
</defs>
</svg>
